<svg width="21" height="21" viewBox="0 0 21 21" fill="none" xmlns="http://www.w3.org/2000/svg">
<path d="M15.9719 9.24683H4.20311C3.27458 9.24683 2.52185 9.99955 2.52185 10.9281V16.8125C2.52185 17.741 3.27458 18.4938 4.20311 18.4938H15.9719C16.9005 18.4938 17.6532 17.741 17.6532 16.8125V10.9281C17.6532 9.99955 16.9005 9.24683 15.9719 9.24683Z" stroke="#878484" stroke-width="2" stroke-linecap="round" stroke-linejoin="round"/>
<path d="M5.8844 9.24683V5.8843C5.8844 4.76956 6.32723 3.70047 7.11547 2.91223C7.90372 2.12398 8.97281 1.68115 10.0876 1.68115C11.2023 1.68115 12.2714 2.12398 13.0596 2.91223C13.8479 3.70047 14.2907 4.76956 14.2907 5.8843V9.24683" stroke="#878484" stroke-width="2" stroke-linecap="round" stroke-linejoin="round"/>
</svg>
